<svg width="48" height="80" viewBox="0 0 48 80" fill="none" xmlns="http://www.w3.org/2000/svg">
<path d="M46.0415 37.0686C48.8762 29.306 47.7935 20.8545 41.5758 14.6359L27.5875 0.64755C26.7235 -0.216443 25.3226 -0.215553 24.4595 0.648439L7.42762 17.7016C-2.59541 27.9407 -2.47897 44.4054 7.8045 54.472L10.3156 56.9858C7.45073 63.1119 8.54316 70.6461 13.5956 75.6967C13.5956 75.6967 17.2133 79.3171 17.2489 79.3527C18.112 80.2149 19.512 80.2167 20.376 79.3527L40.2842 59.4453C46.366 53.3636 48.9953 45.0854 46.0406 37.0695L46.0415 37.0686ZM37.158 56.3182L18.8142 74.6612L16.7235 72.5696C12 67.847 11.9991 60.1626 16.7218 55.44C19.3395 52.8222 31.6248 40.537 34.1154 38.0464C38.4691 33.6917 38.4931 26.6491 34.127 22.3149C31.6408 19.8474 27.583 15.8048 27.583 15.8048C26.7217 14.9461 25.3288 14.9452 24.4657 15.8012L13.472 26.7087C8.39117 31.7477 8.37161 39.9441 13.4329 45.0054L17.168 48.7405C13.1911 52.7173 13.3511 52.5369 12.7814 53.1964L10.9174 51.3298C6.7334 47.2338 4.42942 41.7539 4.42942 35.8988C4.42942 30.0438 6.61696 24.8527 10.5734 20.8109L26.0257 5.33907L38.4496 17.763C45.2673 24.5807 44.6646 35.0704 37.846 41.8881L19.7369 59.8746C18.8737 60.7377 18.8737 62.1377 19.7369 63.0017C20.6 63.8648 21.9999 63.8648 22.863 63.0017L40.9731 45.0152C41.6673 44.321 42.2993 43.5885 42.8798 42.8294C43.4238 47.9876 40.9625 52.5156 37.1589 56.3191L37.158 56.3182ZM27.9474 37.9619L25.1226 35.1362L27.4372 32.8206C28.3003 31.9575 28.3003 30.5575 27.4372 29.6944C26.5741 28.8313 25.1741 28.8304 24.311 29.6944L21.6995 32.3068C20.1351 33.8704 20.1333 36.4019 21.6995 37.9664L24.8213 41.089L20.2951 45.6152L16.56 41.8801C13.2329 38.553 13.2436 33.1646 16.5858 29.8491L26.0195 20.4892C27.4292 21.8927 29.5083 23.9611 31.0114 25.4545C33.6354 28.0598 33.6114 32.2988 30.9883 34.9219L27.9474 37.9628V37.9619Z" fill="url(#paint0_linear_2_6)"/>
<defs>
<linearGradient id="paint0_linear_2_6" x1="0.341455" y1="65.9661" x2="41.1518" y2="18.4563" gradientUnits="userSpaceOnUse">
<stop stop-color="#89DB37"/>
<stop offset="1" stop-color="#2EC733"/>
</linearGradient>
</defs>
</svg>