<?xml version="1.0" encoding="UTF-8"?>
<svg id="graphics" xmlns="http://www.w3.org/2000/svg" xmlns:xlink="http://www.w3.org/1999/xlink" viewBox="0 0 32 32">
  <defs>
    <style>
      .cls-1 {
        fill: url(#linear-gradient);
      }
    </style>
    <linearGradient id="linear-gradient" x1="7.22" y1="25.74" x2="22.52" y2="7.92" gradientUnits="userSpaceOnUse">
      <stop offset="0" stop-color="#89db37"/>
      <stop offset="1" stop-color="#2ec733"/>
    </linearGradient>
  </defs>
  <path class="cls-1" d="m24.35,14.9c1.06-2.91.66-6.08-1.67-8.41l-5.25-5.25c-.32-.32-.85-.32-1.17,0l-6.39,6.39c-3.76,3.84-3.72,10.01.14,13.79l.94.94c-1.07,2.3-.66,5.12,1.23,7.02,0,0,1.36,1.36,1.37,1.37.32.32.85.32,1.17,0l7.47-7.47c2.28-2.28,3.27-5.38,2.16-8.39Zm-3.33,7.22l-6.88,6.88-.78-.78c-1.77-1.77-1.77-4.65,0-6.42.98-.98,5.59-5.59,6.52-6.52,1.63-1.63,1.64-4.27,0-5.9-.93-.93-2.45-2.44-2.45-2.44-.32-.32-.85-.32-1.17,0l-4.12,4.09c-1.91,1.89-1.91,4.96-.01,6.86l1.4,1.4c-1.49,1.49-1.43,1.42-1.65,1.67l-.7-.7c-1.57-1.54-2.43-3.59-2.43-5.79s.82-4.14,2.3-5.66l5.79-5.8,4.66,4.66c2.56,2.56,2.33,6.49-.23,9.05l-6.79,6.74c-.32.32-.32.85,0,1.17.32.32.85.32,1.17,0l6.79-6.75c.26-.26.5-.54.72-.82.2,1.93-.72,3.63-2.15,5.06Zm-3.45-6.88l-1.06-1.06.87-.87c.32-.32.32-.85,0-1.17-.32-.32-.85-.32-1.17,0l-.98.98c-.59.59-.59,1.54,0,2.12l1.17,1.17-1.7,1.7-1.4-1.4c-1.25-1.25-1.24-3.27,0-4.51l3.54-3.51c.53.53,1.31,1.3,1.87,1.86.98.98.98,2.57,0,3.55l-1.14,1.14Z"/>
</svg>