<svg width="24" height="28" viewBox="0 0 24 28" fill="none" xmlns="http://www.w3.org/2000/svg">
<path d="M20.3955 20.5378L22.7577 22.9H1.2423L3.60448 20.5378L3.92667 20.2156V19.76V12C3.92667 8.18844 6.56462 4.99565 10.1335 4.15039L10.98 3.9499V3.08V2.12C10.98 1.55418 11.4342 1.1 12 1.1C12.5658 1.1 13.02 1.55418 13.02 2.12V3.08V3.9499L13.8665 4.15039C17.4354 4.99565 20.0733 8.18844 20.0733 12V19.76V20.2156L20.3955 20.5378ZM12 26.9C11.571 26.9 11.1832 26.7269 10.9023 26.4467H13.0977C12.8168 26.7269 12.429 26.9 12 26.9Z" stroke="#DDDDDD" stroke-width="2.2"/>
</svg>
