<svg width="17" height="36" viewBox="0 0 17 36" fill="none" xmlns="http://www.w3.org/2000/svg">
<path d="M6.43546 14.5112H10.2769V14.9217C10.2769 17.692 10.2804 20.4616 10.2715 23.2318C10.2708 23.4751 10.3393 23.6149 10.5477 23.7527C12.0664 24.7499 12.6463 26.7978 11.9013 28.4749C11.1412 30.1869 9.26877 31.1225 7.47105 30.69C5.65756 30.2534 4.40334 28.5941 4.49929 26.7717C4.56783 25.4647 5.13463 24.4381 6.2271 23.7143C6.41147 23.5923 6.43888 23.4566 6.43888 23.2633C6.43477 20.4931 6.43614 17.7235 6.43614 14.9533V14.5119L6.43546 14.5112Z" fill="white"/>
<path d="M8.97081 0.204132C9.67332 0.424821 10.4252 0.550243 11.0694 0.883332C13.0782 1.92304 14.2502 3.61041 14.3009 5.87555C14.3825 9.47511 14.3304 13.0774 14.3338 16.679C14.3352 18.0696 14.327 19.4602 14.3427 20.8502C14.3448 21.0229 14.4229 21.2326 14.5374 21.3614C16.1555 23.1852 16.8286 25.3194 16.6367 27.7299C16.3474 31.3685 13.3421 34.5589 9.71581 35.1003C5.84485 35.6781 2.28642 33.8153 0.745024 30.2233C-0.597613 27.0946 -0.107574 24.1434 2.06984 21.5033C2.27751 21.2518 2.38648 21.0181 2.3858 20.6857C2.37551 15.8991 2.36866 11.1125 2.38305 6.32584C2.39128 3.72692 3.59753 1.84559 5.94354 0.732551C6.50075 0.468684 7.13745 0.375474 7.73715 0.204132C8.14837 0.204132 8.55959 0.204132 8.97081 0.204132ZM4.70782 12.6552V13.0973C4.70782 15.9923 4.70508 18.8873 4.71262 21.7816C4.71331 22.042 4.64066 22.2168 4.4371 22.3902C3.03004 23.5848 2.33713 25.131 2.34193 26.9575C2.35221 30.7174 5.82497 33.5665 9.51157 32.8023C11.8624 32.315 13.4613 30.8723 14.1015 28.5516C14.7608 26.1604 14.1378 24.0728 12.2633 22.4025C12.0735 22.2332 12.0015 22.0687 12.0022 21.8193C12.0091 16.7249 12.0077 11.6306 12.007 6.53625C12.007 6.35394 12.0049 6.17163 11.9967 5.98933C11.922 4.29921 10.7096 2.90517 9.02564 2.57139C7.41297 2.25133 5.75918 3.11695 5.04365 4.62681C4.58103 5.60278 4.74004 6.62809 4.70988 7.68355C4.8682 7.68355 4.99019 7.68355 5.11219 7.68355C5.76329 7.68355 6.4137 7.6815 7.0648 7.68424C7.69192 7.68698 8.04831 7.95839 8.05859 8.43266C8.06887 8.91516 7.70288 9.19616 7.05247 9.1989C6.49321 9.20165 5.93326 9.1989 5.374 9.1989C5.16154 9.1989 4.94976 9.1989 4.73798 9.1989V11.0864C5.55425 11.0864 6.34105 11.0837 7.12854 11.0878C7.58363 11.0898 7.89204 11.2776 8.00718 11.6066C8.19703 12.1487 7.82008 12.6456 7.19639 12.6532C6.38697 12.6628 5.57687 12.6552 4.70919 12.6552H4.70782Z" fill="white"/>
</svg>
