<svg width="24" height="32" viewBox="0 0 24 32" fill="none" xmlns="http://www.w3.org/2000/svg">
<path d="M12.0506 0.182968C12.4729 0.331016 12.7738 0.61983 13.0499 0.966892C15.6092 4.1845 18.0574 7.47917 20.1538 11.0214C21.0991 12.619 21.9321 14.2724 22.622 15.9998C23.497 18.1908 23.5989 20.406 22.9497 22.6638C22.1202 25.547 20.4468 27.8072 17.9027 29.4072C15.8798 30.6796 13.6548 31.2663 11.2727 31.1735C8.47195 31.0642 5.99397 30.0953 3.88976 28.224C1.97849 26.5245 0.792892 24.4039 0.233466 21.9217C-0.264071 19.7137 0.0635754 17.604 0.931838 15.5393C2.25335 12.3963 4.0281 9.513 6.01218 6.76077C7.46292 4.74817 9.03077 2.82052 10.5386 0.848576C10.78 0.532458 11.0877 0.330409 11.4444 0.182968H12.0512L12.0506 0.182968ZM11.7065 3.41635C11.6204 3.51889 11.5743 3.57107 11.5312 3.62568C9.51739 6.1431 7.64252 8.75941 5.93815 11.4947C4.89211 13.1735 3.92737 14.8991 3.21929 16.7534C2.90924 17.5652 2.62286 18.3953 2.60223 19.2678C2.54762 21.5862 3.25145 23.6606 4.76955 25.4293C6.27975 27.1895 8.20619 28.2192 10.5058 28.5074C12.8903 28.8059 15.0886 28.275 17.0448 26.8637C18.9275 25.5052 20.0991 23.6655 20.5839 21.406C20.8224 20.295 20.8813 19.1737 20.5718 18.0506C20.2484 16.8778 19.7794 15.7674 19.2339 14.6862C17.8578 11.957 16.1553 9.43048 14.3732 6.95554C13.5189 5.76873 12.6142 4.61772 11.7065 3.41635Z" fill="#DDDDDD"/>
<path d="M8.75063 22.9204C8.16269 22.3391 7.56079 21.7451 6.98438 21.176C9.56247 18.6034 12.1539 16.0168 14.7211 13.4545C15.2847 14.0175 15.8879 14.62 16.474 15.2056C13.9159 17.7612 11.3245 20.3502 8.75063 22.921V22.9204Z" fill="#DDDDDD"/>
<path d="M14.292 20.8035C14.295 20.096 14.8775 19.5129 15.5838 19.5111C16.2834 19.5092 16.8768 20.0972 16.8853 20.8004C16.8938 21.5109 16.2894 22.1104 15.5716 22.1031C14.8605 22.0958 14.289 21.5152 14.292 20.8035Z" fill="#DDDDDD"/>
<path d="M9.08033 15.6363C9.07487 16.3462 8.49603 16.9117 7.77945 16.9081C7.06652 16.9045 6.48647 16.3256 6.48829 15.6194C6.49011 14.8985 7.08776 14.3167 7.81101 14.3312C8.52879 14.3458 9.0864 14.9186 9.08033 15.6357V15.6363Z" fill="#DDDDDD"/>
</svg>
