<svg width="26" height="30" viewBox="0 0 26 30" fill="none" xmlns="http://www.w3.org/2000/svg">
<path d="M18.1147 18.8768C18.4086 18.9635 18.6883 19.0397 18.9638 19.1276C22.4629 20.2444 24.668 22.5425 25.5142 26.0729C25.7026 26.8604 25.7235 27.6643 25.7116 28.47C25.708 28.7138 25.7152 28.9569 25.7098 29.2007C25.7002 29.6542 25.3729 29.9806 24.9125 29.9982C24.8076 30.0023 24.702 29.9982 24.5965 29.9982C16.733 29.9982 8.87014 29.9988 1.00666 29.9952C0.824792 29.9952 0.630397 29.9771 0.464028 29.912C0.184361 29.8019 0.0179915 29.5663 0.0132211 29.2716C-0.00466804 28.146 -0.044024 27.0163 0.242799 25.9112C1.12235 22.5191 3.25831 20.2731 6.6334 19.1622C6.94944 19.0579 7.27085 18.9688 7.59047 18.8721C7.41456 18.5721 7.2303 18.2915 7.07943 17.995C6.62505 17.1008 6.44914 16.141 6.43244 15.1502C6.42171 14.505 6.42886 13.8593 6.42827 13.2142C6.42827 13.1486 6.42827 13.0829 6.42827 13.0144C5.88146 12.9183 5.35075 12.8351 4.82421 12.7308C3.71687 12.5116 2.61967 12.2485 1.61013 11.7347C1.23505 11.5436 0.868919 11.3063 0.560033 11.0251C-0.184752 10.3465 -0.179982 9.4307 0.534392 8.71994C1.0335 8.22305 1.66141 7.93242 2.31257 7.68691C3.53977 7.22459 4.82123 6.97791 6.11402 6.77751C6.21121 6.76228 6.30841 6.74704 6.42588 6.72888C6.36745 4.54269 7.1492 2.72214 8.89697 1.34867C10.083 0.417008 11.4539 -0.0300731 12.9709 0.0015683C14.7962 0.0390692 16.346 0.717601 17.5863 2.03482C18.8278 3.35321 19.3514 4.93762 19.2846 6.71599C19.8904 6.82439 20.4766 6.91755 21.0568 7.0365C22.157 7.26092 23.2405 7.54159 24.2429 8.0584C24.6961 8.29219 25.1153 8.57228 25.4152 8.99299C25.8201 9.56019 25.8118 10.2211 25.3872 10.7778C25.0115 11.27 24.4886 11.5729 23.9328 11.8249C22.7754 12.3493 21.5434 12.6206 20.2983 12.8433C19.9698 12.9019 19.64 12.9511 19.2852 13.0085C19.2852 13.0806 19.2852 13.1515 19.2852 13.2224C19.278 14.0017 19.2941 14.7816 19.2584 15.5597C19.2035 16.7399 18.8565 17.8332 18.1516 18.8042C18.1409 18.8188 18.1349 18.8364 18.1141 18.8786L18.1147 18.8768ZM6.83435 20.7812C6.75504 20.8052 6.70197 20.8187 6.65069 20.8368C6.06035 21.0495 5.50817 21.3343 4.98581 21.6783C4.87072 21.7538 4.82302 21.8318 4.82361 21.9724C4.82898 24.049 4.82719 26.125 4.82719 28.2017C4.82719 28.2667 4.82719 28.3311 4.82719 28.3974H20.8797C20.8833 28.3569 20.8881 28.3329 20.8881 28.3089C20.8881 26.1778 20.8899 24.0467 20.8839 21.9156C20.8839 21.847 20.829 21.7521 20.77 21.7146C20.485 21.5324 20.1975 21.3501 19.8958 21.1972C19.5792 21.0366 19.2452 20.9095 18.8839 20.7519C18.8839 20.8644 18.8839 20.9294 18.8839 20.9939C18.8839 22.3884 18.8839 23.7824 18.8839 25.177C18.8839 25.7325 18.5631 26.0506 17.9978 26.0506C14.5774 26.053 11.157 26.0547 7.73656 26.0553C7.16053 26.0553 6.83554 25.7354 6.83554 25.1735C6.83554 23.7912 6.83554 22.4089 6.83554 21.0267V20.7806L6.83435 20.7812ZM8.03889 8.28282C9.75684 8.79787 16.2756 8.79318 17.6752 8.27637C17.6752 7.72265 17.6835 7.16307 17.6722 6.60407C17.6644 6.23375 17.6644 5.85757 17.5988 5.49545C17.1468 2.98933 14.8254 1.31293 12.2542 1.61879C9.98642 1.88892 8.18677 3.75517 8.06095 5.99234C8.02338 6.66618 8.04426 7.34295 8.03889 8.01856C8.03829 8.10879 8.03889 8.19903 8.03889 8.28282ZM17.6436 13.1972C14.4551 13.4972 11.2554 13.4949 8.00609 13.1919C8.04127 14.1324 8.02935 15.0412 8.12118 15.94C8.22374 16.9449 8.64056 17.8467 9.45332 18.493C10.9065 19.6491 12.5589 20.0095 14.371 19.505C16.0121 19.0479 17.117 18.0454 17.5207 16.3789C17.7718 15.3412 17.6597 14.2847 17.6626 13.2341C17.6626 13.2288 17.6573 13.2236 17.6442 13.1978L17.6436 13.1972ZM6.42886 8.33731C6.38414 8.33731 6.36506 8.33497 6.34717 8.33731C6.24282 8.35196 6.13906 8.36661 6.0353 8.38419C4.89875 8.5758 3.76994 8.80256 2.69719 9.23206C2.37876 9.35921 2.07465 9.53031 1.78365 9.71254C1.56004 9.85258 1.5654 9.94516 1.79319 10.0876C2.02694 10.2335 2.27441 10.367 2.53142 10.4661C3.90769 10.9958 5.35194 11.2507 6.80692 11.454C8.96435 11.7546 11.1349 11.8554 13.3114 11.8366C15.6442 11.8161 17.9656 11.6585 20.2619 11.2337C21.2977 11.0421 22.324 10.8112 23.2948 10.3946C23.5142 10.3003 23.7265 10.1801 23.9221 10.0442C24.1552 9.88247 24.1516 9.80805 23.9143 9.66039C23.7163 9.53675 23.5082 9.42484 23.2936 9.33343C22.2757 8.89924 21.2011 8.66193 20.1164 8.46036C19.8463 8.40997 19.5738 8.37013 19.2852 8.32266C19.2852 8.53302 19.2858 8.71467 19.2852 8.89631C19.2828 9.35511 19.0371 9.64809 18.575 9.74125C16.999 10.0588 15.4038 10.21 13.7968 10.2493C11.5547 10.3044 9.32631 10.1795 7.12356 9.73832C6.68826 9.65102 6.43602 9.35218 6.42886 8.91565C6.42588 8.72814 6.42886 8.54005 6.42886 8.33848V8.33731ZM17.2584 24.4609C17.2673 24.4234 17.2745 24.4059 17.2745 24.3883C17.2757 23.0611 17.2762 21.7339 17.2756 20.4073C17.2756 20.3722 17.2756 20.33 17.2566 20.3036C17.188 20.2063 16.73 20.1477 16.6185 20.2145C14.1814 21.6724 11.7223 21.6548 9.25654 20.2978C9.02756 20.1718 8.84271 20.1366 8.60478 20.2263C8.47777 20.2737 8.43722 20.3282 8.43722 20.4589C8.44199 21.731 8.4402 23.0037 8.4408 24.2758C8.4408 24.335 8.44676 24.3941 8.44974 24.4615H17.2584V24.4609ZM24.0902 28.4085C24.1743 26.5334 23.6746 24.8553 22.51 23.3312V28.4085H24.0902ZM3.21061 23.3306C2.04185 24.8641 1.54751 26.5422 1.62384 28.4009H3.21061V23.3306Z" fill="#DDDDDD"/>
</svg>
